<svg height="497pt" viewBox="-16 0 497 497.072" width="497pt" xmlns="http://www.w3.org/2000/svg"><path d="m286.363281 93.398438c-14.269531-13.238282-33.328125-21.398438-54.328125-21.398438s-40.054687 8.160156-54.328125 21.398438c3.746094 7.417968 17.023438 26.601562 54.328125 26.601562 37.304688 0 50.585938-19.183594 54.328125-26.601562zm0 0" fill="#f0bc5e"/><path d="m36.460938 399.160156-10.535157-5.265625c-15.96875-7.992187-25.8906248-24.046875-25.8906248-41.894531h15.9999998c0 11.761719 6.527344 22.320312 17.039063 27.574219l10.539062 5.265625zm0 0"/><path d="m36.460938 327.160156-10.535157-5.265625c-15.96875-7.992187-25.8906248-24.046875-25.8906248-41.894531h15.9999998c0 11.761719 6.527344 22.320312 17.039063 27.574219l10.539062 5.265625zm0 0"/><path d="m36.460938 255.160156-10.535157-5.265625c-15.96875-7.992187-25.8906248-24.039062-25.8906248-41.894531h15.9999998c0 11.753906 6.527344 22.328125 17.039063 27.574219l10.539062 5.265625zm0 0"/><path d="m36.460938 183.160156-10.535157-5.265625c-15.96875-7.992187-25.8906248-24.039062-25.8906248-41.894531h15.9999998c0 11.753906 6.527344 22.328125 17.039063 27.574219l10.539062 5.265625zm0 0"/><path d="m320.035156 0h16v16h-16zm0 0"/><path d="m128.035156 0h16v16h-16zm0 0"/><path d="m392.035156 168h-59.304687c-3.949219-2.367188-8.191407-4.296875-12.695313-5.640625v-10.359375c0-42.078125-29.703125-77.304688-69.230468-85.9375l6.671874-17.796875c7.238282-19.296875 25.953126-32.265625 46.558594-32.265625v-16c-27.238281 0-51.976562 17.136719-61.535156 42.648438l-8.054688 21.480468c-.808593-.023437-1.59375-.128906-2.410156-.128906s-1.597656.105469-2.40625.121094l-8.058594-21.480469c-9.558593-25.503906-34.292968-42.640625-61.535156-42.640625v16c20.609375 0 39.320313 12.96875 46.554688 32.265625l6.671875 17.796875c-39.523438 8.632812-69.226563 43.859375-69.226563 85.9375v10.359375c-4.503906 1.34375-8.742187 3.273437-12.695312 5.640625h-59.304688v16h42.113282c-6.351563 9.078125-10.113282 20.105469-10.113282 32v24h-32v16h32v48c0 2.679688.167969 5.335938.273438 8h-32.273438v16h33.480469c2.25 19.464844 7.160156 38.289062 14.527344 56h-48.007813v16h55.457032c19.023437 36.585938 48.839843 67.351562 86.664062 87.519531l17.878906 9.550781 17.878906-9.535156c37.832032-20.175781 67.640626-50.949218 86.664063-87.535156h55.457031v-16h-48.015625c7.375-17.710938 12.289063-36.535156 14.527344-56h33.488281v-16h-32.269531c.101563-2.664062.269531-5.320312.269531-8v-48h32v-16h-32v-24c0-11.894531-3.757812-22.921875-10.109375-32h42.109375zm-48 136c0 65.726562-33.375 126.144531-88 161.320312v-225.320312h-16v234.664062l-8 4.265626-8-4.273438v-234.65625h-16v225.3125c-54.625-35.167969-88-95.585938-88-161.3125v-88c0-22.054688 17.945313-40 40-40h24v-16h-24v-8c0-39.695312 32.304688-72 72-72 39.695313 0 72 32.304688 72 72v8h-24v16h24c22.058594 0 40 17.945312 40 40zm0 0"/><g fill="#f0bc5e"><path d="m56.035156 152c-13.230468 0-24 10.769531-24 24s10.769532 24 24 24c13.234375 0 24-10.769531 24-24s-10.765625-24-24-24zm0 32c-4.414062 0-8-3.585938-8-8s3.585938-8 8-8c4.417969 0 8 3.585938 8 8s-3.582031 8-8 8zm0 0"/><path d="m56.035156 224c-13.230468 0-24 10.769531-24 24s10.769532 24 24 24c13.234375 0 24-10.769531 24-24s-10.765625-24-24-24zm0 32c-4.414062 0-8-3.585938-8-8s3.585938-8 8-8c4.417969 0 8 3.585938 8 8s-3.582031 8-8 8zm0 0"/><path d="m56.035156 296c-13.230468 0-24 10.769531-24 24s10.769532 24 24 24c13.234375 0 24-10.769531 24-24s-10.765625-24-24-24zm0 32c-4.414062 0-8-3.585938-8-8s3.585938-8 8-8c4.417969 0 8 3.585938 8 8s-3.582031 8-8 8zm0 0"/><path d="m232.035156 256c-7.296875 0-14.160156-2.839844-19.3125-8l-6.0625-6.0625c-19.753906-19.753906-30.625-46.007812-30.625-73.9375 0-13.230469 10.769532-24 24-24h64c13.234375 0 24 10.769531 24 24 0 27.929688-10.871094 54.183594-30.625 73.9375l-6.0625 6.0625c-5.152344 5.160156-12.015625 8-19.3125 8zm0 0"/><path d="m56.035156 368c-13.230468 0-24 10.769531-24 24s10.769532 24 24 24c13.234375 0 24-10.769531 24-24s-10.765625-24-24-24zm0 32c-4.414062 0-8-3.585938-8-8s3.585938-8 8-8c4.417969 0 8 3.585938 8 8s-3.582031 8-8 8zm0 0"/></g><path d="m427.613281 399.160156-7.160156-14.3125 10.535156-5.261718c10.519531-5.265626 17.046875-15.824219 17.046875-27.585938h16c0 17.847656-9.917968 33.902344-25.886718 41.886719zm0 0"/><path d="m427.613281 327.160156-7.160156-14.3125 10.535156-5.261718c10.519531-5.265626 17.046875-15.824219 17.046875-27.585938h16c0 17.847656-9.917968 33.902344-25.886718 41.886719zm0 0"/><path d="m427.613281 255.160156-7.160156-14.3125 10.535156-5.261718c10.519531-5.257813 17.046875-15.832032 17.046875-27.585938h16c0 17.855469-9.917968 33.902344-25.886718 41.886719zm0 0"/><path d="m427.613281 183.160156-7.160156-14.3125 10.535156-5.261718c10.519531-5.257813 17.046875-15.832032 17.046875-27.585938h16c0 17.855469-9.917968 33.902344-25.886718 41.886719zm0 0"/><path d="m408.035156 200c13.234375 0 24-10.769531 24-24s-10.765625-24-24-24c-13.230468 0-24 10.769531-24 24s10.769532 24 24 24zm0-32c4.417969 0 8 3.585938 8 8s-3.582031 8-8 8c-4.414062 0-8-3.585938-8-8s3.585938-8 8-8zm0 0" fill="#f0bc5e"/><path d="m408.035156 224c-13.230468 0-24 10.769531-24 24s10.769532 24 24 24c13.234375 0 24-10.769531 24-24s-10.765625-24-24-24zm0 32c-4.414062 0-8-3.585938-8-8s3.585938-8 8-8c4.417969 0 8 3.585938 8 8s-3.582031 8-8 8zm0 0" fill="#f0bc5e"/><path d="m408.035156 296c-13.230468 0-24 10.769531-24 24s10.769532 24 24 24c13.234375 0 24-10.769531 24-24s-10.765625-24-24-24zm0 32c-4.414062 0-8-3.585938-8-8s3.585938-8 8-8c4.417969 0 8 3.585938 8 8s-3.582031 8-8 8zm0 0" fill="#f0bc5e"/><path d="m408.035156 368c-13.230468 0-24 10.769531-24 24s10.769532 24 24 24c13.234375 0 24-10.769531 24-24s-10.765625-24-24-24zm0 32c-4.414062 0-8-3.585938-8-8s3.585938-8 8-8c4.417969 0 8 3.585938 8 8s-3.582031 8-8 8zm0 0" fill="#f0bc5e"/></svg>